<svg xmlns="http://www.w3.org/2000/svg" xmlns:xlink="http://www.w3.org/1999/xlink" width="500" zoomAndPan="magnify" viewBox="0 0 375 149.999998" height="200" preserveAspectRatio="xMidYMid meet" version="1.0"><defs><g/></defs><g fill="#000000" fill-opacity="1"><g transform="translate(-1.306071, 98.767985)"><g><path d="M 9.921875 -5.578125 C 4.710938 -10.210938 2.109375 -16.160156 2.109375 -23.421875 C 2.109375 -30.679688 4.820312 -36.644531 10.25 -41.3125 C 15.675781 -45.976562 22.390625 -48.3125 30.390625 -48.3125 C 38.253906 -48.3125 44.882812 -45.960938 50.28125 -41.265625 C 55.6875 -36.578125 58.390625 -30.628906 58.390625 -23.421875 C 58.390625 -16.222656 55.75 -10.289062 50.46875 -5.625 C 45.195312 -0.957031 38.503906 1.375 30.390625 1.375 C 21.960938 1.375 15.140625 -0.941406 9.921875 -5.578125 Z M 22.46875 -31.390625 C 20.363281 -29.316406 19.3125 -26.660156 19.3125 -23.421875 C 19.3125 -20.191406 20.316406 -17.554688 22.328125 -15.515625 C 24.335938 -13.472656 26.992188 -12.453125 30.296875 -12.453125 C 33.460938 -12.453125 36.066406 -13.488281 38.109375 -15.5625 C 40.160156 -17.632812 41.1875 -20.253906 41.1875 -23.421875 C 41.1875 -26.660156 40.132812 -29.316406 38.03125 -31.390625 C 35.925781 -33.460938 33.347656 -34.5 30.296875 -34.5 C 27.179688 -34.5 24.570312 -33.460938 22.46875 -31.390625 Z M 22.46875 -31.390625 "/></g></g></g><g fill="#000000" fill-opacity="1"><g transform="translate(50.567137, 98.767985)"><g><path d="M 5.484375 0 L 5.484375 -46.953125 L 21.6875 -46.953125 L 21.6875 -42 L 21.875 -42 C 26.082031 -46.207031 30.566406 -48.3125 35.328125 -48.3125 C 38.742188 -48.3125 41.945312 -47.609375 44.9375 -46.203125 C 47.925781 -44.804688 50.179688 -42.644531 51.703125 -39.71875 C 56.460938 -45.445312 61.648438 -48.3125 67.265625 -48.3125 C 72.265625 -48.3125 76.5625 -46.910156 80.15625 -44.109375 C 83.757812 -41.304688 85.5625 -36.914062 85.5625 -30.9375 L 85.5625 0 L 69.375 0 L 69.375 -26.546875 C 69.375 -29.046875 68.6875 -31.132812 67.3125 -32.8125 C 65.9375 -34.488281 63.875 -35.328125 61.125 -35.328125 C 58.75 -35.328125 56.9375 -34.609375 55.6875 -33.171875 C 54.4375 -31.742188 53.75 -30.019531 53.625 -28 L 53.625 0 L 37.4375 0 L 37.4375 -26.546875 C 37.4375 -29.046875 36.75 -31.132812 35.375 -32.8125 C 34 -34.488281 31.9375 -35.328125 29.1875 -35.328125 C 26.6875 -35.328125 24.8125 -34.546875 23.5625 -32.984375 C 22.3125 -31.429688 21.6875 -29.585938 21.6875 -27.453125 L 21.6875 0 Z M 5.484375 0 "/></g></g></g><g fill="#000000" fill-opacity="1"><g transform="translate(132.083603, 98.767985)"><g><path d="M 5.484375 0 L 5.484375 -46.953125 L 21.6875 -46.953125 L 21.6875 -42 L 21.875 -42 C 26.082031 -46.207031 30.566406 -48.3125 35.328125 -48.3125 C 37.640625 -48.3125 39.941406 -48.003906 42.234375 -47.390625 C 44.523438 -46.785156 46.722656 -45.84375 48.828125 -44.5625 C 50.929688 -43.28125 52.640625 -41.460938 53.953125 -39.109375 C 55.265625 -36.765625 55.921875 -34.039062 55.921875 -30.9375 L 55.921875 0 L 39.71875 0 L 39.71875 -26.546875 C 39.71875 -28.984375 38.9375 -31.113281 37.375 -32.9375 C 35.820312 -34.769531 33.796875 -35.6875 31.296875 -35.6875 C 28.859375 -35.6875 26.644531 -34.738281 24.65625 -32.84375 C 22.675781 -30.957031 21.6875 -28.859375 21.6875 -26.546875 L 21.6875 0 Z M 5.484375 0 "/></g></g></g><g fill="#000000" fill-opacity="1"><g transform="translate(183.956801, 98.767985)"><g><path d="M 7.046875 -73.109375 C 8.941406 -75.003906 11.195312 -75.953125 13.8125 -75.953125 C 16.4375 -75.953125 18.691406 -75.003906 20.578125 -73.109375 C 22.472656 -71.222656 23.421875 -68.96875 23.421875 -66.34375 C 23.421875 -63.71875 22.472656 -61.457031 20.578125 -59.5625 C 18.691406 -57.675781 16.4375 -56.734375 13.8125 -56.734375 C 11.195312 -56.734375 8.941406 -57.675781 7.046875 -59.5625 C 5.148438 -61.457031 4.203125 -63.71875 4.203125 -66.34375 C 4.203125 -68.96875 5.148438 -71.222656 7.046875 -73.109375 Z M 5.484375 -46.953125 L 5.484375 0 L 21.6875 0 L 21.6875 -46.953125 Z M 5.484375 -46.953125 "/></g></g></g><g fill="#000000" fill-opacity="1"><g transform="translate(202.984537, 98.767985)"><g><path d="M 5.484375 0 L 5.484375 -46.953125 L 21.6875 -46.953125 L 21.6875 -42 L 21.875 -42 C 26.082031 -46.207031 30.566406 -48.3125 35.328125 -48.3125 C 38.742188 -48.3125 41.945312 -47.609375 44.9375 -46.203125 C 47.925781 -44.804688 50.179688 -42.644531 51.703125 -39.71875 C 56.460938 -45.445312 61.648438 -48.3125 67.265625 -48.3125 C 72.265625 -48.3125 76.5625 -46.910156 80.15625 -44.109375 C 83.757812 -41.304688 85.5625 -36.914062 85.5625 -30.9375 L 85.5625 0 L 69.375 0 L 69.375 -26.546875 C 69.375 -29.046875 68.6875 -31.132812 67.3125 -32.8125 C 65.9375 -34.488281 63.875 -35.328125 61.125 -35.328125 C 58.75 -35.328125 56.9375 -34.609375 55.6875 -33.171875 C 54.4375 -31.742188 53.75 -30.019531 53.625 -28 L 53.625 0 L 37.4375 0 L 37.4375 -26.546875 C 37.4375 -29.046875 36.75 -31.132812 35.375 -32.8125 C 34 -34.488281 31.9375 -35.328125 29.1875 -35.328125 C 26.6875 -35.328125 24.8125 -34.546875 23.5625 -32.984375 C 22.3125 -31.429688 21.6875 -29.585938 21.6875 -27.453125 L 21.6875 0 Z M 5.484375 0 "/></g></g></g><g fill="#000000" fill-opacity="1"><g transform="translate(284.501013, 98.767985)"><g><path d="M 52.984375 -21.234375 L 18.9375 -21.234375 C 18.9375 -17.941406 20.003906 -15.5 22.140625 -13.90625 C 24.273438 -12.320312 26.597656 -11.53125 29.109375 -11.53125 C 31.722656 -11.53125 33.789062 -11.878906 35.3125 -12.578125 C 36.84375 -13.285156 38.585938 -14.675781 40.546875 -16.75 L 52.25 -10.890625 C 47.375 -2.710938 39.257812 1.375 27.90625 1.375 C 20.832031 1.375 14.765625 -1.046875 9.703125 -5.890625 C 4.640625 -10.742188 2.109375 -16.585938 2.109375 -23.421875 C 2.109375 -30.253906 4.640625 -36.109375 9.703125 -40.984375 C 14.765625 -45.867188 20.832031 -48.3125 27.90625 -48.3125 C 35.351562 -48.3125 41.410156 -46.160156 46.078125 -41.859375 C 50.742188 -37.566406 53.078125 -31.421875 53.078125 -23.421875 C 53.078125 -22.328125 53.046875 -21.597656 52.984375 -21.234375 Z M 19.40625 -30.203125 L 37.25 -30.203125 C 36.882812 -32.640625 35.921875 -34.515625 34.359375 -35.828125 C 32.804688 -37.140625 30.8125 -37.796875 28.375 -37.796875 C 25.6875 -37.796875 23.546875 -37.09375 21.953125 -35.6875 C 20.367188 -34.289062 19.519531 -32.460938 19.40625 -30.203125 Z M 19.40625 -30.203125 "/></g></g></g><g fill="#000000" fill-opacity="1"><g transform="translate(331.067717, 98.767985)"><g><path d="M 25.90625 -48.3125 C 28.582031 -48.3125 31.234375 -48.003906 33.859375 -47.390625 C 36.484375 -46.785156 38.4375 -46.179688 39.71875 -45.578125 L 41.640625 -44.65625 L 36.328125 -34.046875 C 32.671875 -35.992188 29.195312 -36.96875 25.90625 -36.96875 C 24.070312 -36.96875 22.769531 -36.769531 22 -36.375 C 21.238281 -35.976562 20.859375 -35.234375 20.859375 -34.140625 C 20.859375 -33.890625 20.890625 -33.640625 20.953125 -33.390625 C 21.015625 -33.148438 21.132812 -32.921875 21.3125 -32.703125 C 21.5 -32.492188 21.671875 -32.3125 21.828125 -32.15625 C 21.984375 -32.007812 22.242188 -31.84375 22.609375 -31.65625 C 22.972656 -31.476562 23.257812 -31.34375 23.46875 -31.25 C 23.6875 -31.15625 24.039062 -31.015625 24.53125 -30.828125 C 25.019531 -30.648438 25.382812 -30.515625 25.625 -30.421875 C 25.863281 -30.335938 26.273438 -30.203125 26.859375 -30.015625 C 27.441406 -29.835938 27.882812 -29.71875 28.1875 -29.65625 C 30.082031 -29.101562 31.726562 -28.488281 33.125 -27.8125 C 34.53125 -27.144531 36.007812 -26.234375 37.5625 -25.078125 C 39.125 -23.921875 40.332031 -22.457031 41.1875 -20.6875 C 42.039062 -18.914062 42.46875 -16.898438 42.46875 -14.640625 C 42.46875 -3.960938 35.050781 1.375 20.21875 1.375 C 16.863281 1.375 13.675781 0.859375 10.65625 -0.171875 C 7.632812 -1.210938 5.457031 -2.253906 4.125 -3.296875 L 2.109375 -4.9375 L 8.6875 -16.015625 C 9.175781 -15.585938 9.816406 -15.082031 10.609375 -14.5 C 11.410156 -13.925781 12.847656 -13.132812 14.921875 -12.125 C 16.992188 -11.113281 18.789062 -10.609375 20.3125 -10.609375 C 23.664062 -10.609375 25.34375 -11.738281 25.34375 -14 C 25.34375 -15.039062 24.914062 -15.847656 24.0625 -16.421875 C 23.207031 -17.003906 21.757812 -17.660156 19.71875 -18.390625 C 17.675781 -19.128906 16.078125 -19.800781 14.921875 -20.40625 C 11.992188 -21.9375 9.675781 -23.660156 7.96875 -25.578125 C 6.257812 -27.503906 5.40625 -30.050781 5.40625 -33.21875 C 5.40625 -37.976562 7.25 -41.679688 10.9375 -44.328125 C 14.625 -46.984375 19.613281 -48.3125 25.90625 -48.3125 Z M 25.90625 -48.3125 "/></g></g></g><g fill="#000000" fill-opacity="1"><g transform="translate(68.605912, 124.048361)"><g><path d="M 3 -0.890625 C 3 -0.640625 2.914062 -0.425781 2.75 -0.25 C 2.582031 -0.0820312 2.367188 0 2.109375 0 C 1.859375 0 1.648438 -0.0820312 1.484375 -0.25 C 1.316406 -0.425781 1.234375 -0.640625 1.234375 -0.890625 L 1.234375 -8.953125 C 1.234375 -9.203125 1.316406 -9.410156 1.484375 -9.578125 C 1.648438 -9.753906 1.859375 -9.84375 2.109375 -9.84375 C 2.367188 -9.84375 2.582031 -9.753906 2.75 -9.578125 C 2.914062 -9.410156 3 -9.203125 3 -8.953125 Z M 2.09375 -11.078125 C 1.738281 -11.078125 1.484375 -11.140625 1.328125 -11.265625 C 1.171875 -11.398438 1.09375 -11.609375 1.09375 -11.890625 L 1.09375 -12.1875 C 1.09375 -12.488281 1.175781 -12.703125 1.34375 -12.828125 C 1.507812 -12.953125 1.765625 -13.015625 2.109375 -13.015625 C 2.460938 -13.015625 2.710938 -12.945312 2.859375 -12.8125 C 3.015625 -12.675781 3.09375 -12.46875 3.09375 -12.1875 L 3.09375 -11.890625 C 3.09375 -11.585938 3.007812 -11.375 2.84375 -11.25 C 2.6875 -11.132812 2.4375 -11.078125 2.09375 -11.078125 Z M 2.09375 -11.078125 "/></g></g></g><g fill="#000000" fill-opacity="1"><g transform="translate(84.959973, 124.048361)"><g><path d="M 6.296875 -9.96875 C 8.523438 -9.96875 9.640625 -8.628906 9.640625 -5.953125 L 9.640625 -0.890625 C 9.640625 -0.640625 9.554688 -0.425781 9.390625 -0.25 C 9.222656 -0.0820312 9.007812 0 8.75 0 C 8.5 0 8.289062 -0.0820312 8.125 -0.25 C 7.957031 -0.425781 7.875 -0.640625 7.875 -0.890625 L 7.875 -5.9375 C 7.875 -6.664062 7.703125 -7.25 7.359375 -7.6875 C 7.023438 -8.125 6.484375 -8.34375 5.734375 -8.34375 C 5.234375 -8.34375 4.78125 -8.234375 4.375 -8.015625 C 3.976562 -7.796875 3.664062 -7.503906 3.4375 -7.140625 C 3.207031 -6.773438 3.09375 -6.375 3.09375 -5.9375 L 3.09375 -0.890625 C 3.09375 -0.640625 3.007812 -0.425781 2.84375 -0.25 C 2.675781 -0.0820312 2.460938 0 2.203125 0 C 1.941406 0 1.726562 -0.0820312 1.5625 -0.25 C 1.40625 -0.414062 1.328125 -0.628906 1.328125 -0.890625 L 1.328125 -8.859375 C 1.328125 -9.109375 1.410156 -9.316406 1.578125 -9.484375 C 1.742188 -9.660156 1.953125 -9.75 2.203125 -9.75 C 2.460938 -9.75 2.675781 -9.660156 2.84375 -9.484375 C 3.007812 -9.316406 3.09375 -9.109375 3.09375 -8.859375 L 3.09375 -8.203125 C 3.414062 -8.703125 3.863281 -9.117188 4.4375 -9.453125 C 5.007812 -9.796875 5.628906 -9.96875 6.296875 -9.96875 Z M 6.296875 -9.96875 "/></g></g></g><g fill="#000000" fill-opacity="1"><g transform="translate(108.046082, 124.048361)"><g><path d="M 9.234375 -13.765625 C 9.492188 -13.765625 9.707031 -13.679688 9.875 -13.515625 C 10.039062 -13.347656 10.125 -13.132812 10.125 -12.875 L 10.125 -0.890625 C 10.125 -0.640625 10.039062 -0.425781 9.875 -0.25 C 9.707031 -0.0820312 9.492188 0 9.234375 0 C 8.972656 0 8.757812 -0.0820312 8.59375 -0.25 C 8.4375 -0.414062 8.359375 -0.628906 8.359375 -0.890625 L 8.359375 -1.421875 C 8.046875 -0.972656 7.609375 -0.59375 7.046875 -0.28125 C 6.484375 0.03125 5.878906 0.1875 5.234375 0.1875 C 4.390625 0.1875 3.625 -0.0234375 2.9375 -0.453125 C 2.257812 -0.890625 1.71875 -1.492188 1.3125 -2.265625 C 0.914062 -3.046875 0.71875 -3.921875 0.71875 -4.890625 C 0.71875 -5.859375 0.910156 -6.726562 1.296875 -7.5 C 1.691406 -8.28125 2.226562 -8.882812 2.90625 -9.3125 C 3.59375 -9.75 4.347656 -9.96875 5.171875 -9.96875 C 5.828125 -9.96875 6.429688 -9.832031 6.984375 -9.5625 C 7.546875 -9.289062 8.003906 -8.9375 8.359375 -8.5 L 8.359375 -12.875 C 8.359375 -13.132812 8.4375 -13.347656 8.59375 -13.515625 C 8.757812 -13.679688 8.972656 -13.765625 9.234375 -13.765625 Z M 5.4375 -1.453125 C 6.019531 -1.453125 6.535156 -1.597656 6.984375 -1.890625 C 7.441406 -2.191406 7.796875 -2.601562 8.046875 -3.125 C 8.304688 -3.644531 8.4375 -4.234375 8.4375 -4.890625 C 8.4375 -5.535156 8.304688 -6.117188 8.046875 -6.640625 C 7.796875 -7.171875 7.441406 -7.585938 6.984375 -7.890625 C 6.535156 -8.191406 6.019531 -8.34375 5.4375 -8.34375 C 4.851562 -8.34375 4.332031 -8.191406 3.875 -7.890625 C 3.425781 -7.585938 3.070312 -7.171875 2.8125 -6.640625 C 2.5625 -6.117188 2.4375 -5.535156 2.4375 -4.890625 C 2.4375 -4.234375 2.5625 -3.644531 2.8125 -3.125 C 3.070312 -2.601562 3.425781 -2.191406 3.875 -1.890625 C 4.332031 -1.597656 4.851562 -1.453125 5.4375 -1.453125 Z M 5.4375 -1.453125 "/></g></g></g><g fill="#000000" fill-opacity="1"><g transform="translate(131.597124, 124.048361)"><g><path d="M 8.578125 -9.75 C 8.835938 -9.75 9.050781 -9.660156 9.21875 -9.484375 C 9.382812 -9.316406 9.46875 -9.109375 9.46875 -8.859375 L 9.46875 -3.90625 C 9.46875 -2.613281 9.109375 -1.609375 8.390625 -0.890625 C 7.679688 -0.179688 6.675781 0.171875 5.375 0.171875 C 4.082031 0.171875 3.082031 -0.179688 2.375 -0.890625 C 1.675781 -1.609375 1.328125 -2.613281 1.328125 -3.90625 L 1.328125 -8.859375 C 1.328125 -9.109375 1.410156 -9.316406 1.578125 -9.484375 C 1.742188 -9.660156 1.953125 -9.75 2.203125 -9.75 C 2.460938 -9.75 2.675781 -9.660156 2.84375 -9.484375 C 3.007812 -9.316406 3.09375 -9.109375 3.09375 -8.859375 L 3.09375 -3.90625 C 3.09375 -2.28125 3.851562 -1.46875 5.375 -1.46875 C 6.132812 -1.46875 6.710938 -1.671875 7.109375 -2.078125 C 7.503906 -2.492188 7.703125 -3.101562 7.703125 -3.90625 L 7.703125 -8.859375 C 7.703125 -9.109375 7.785156 -9.316406 7.953125 -9.484375 C 8.117188 -9.660156 8.328125 -9.75 8.578125 -9.75 Z M 8.578125 -9.75 "/></g></g></g><g fill="#000000" fill-opacity="1"><g transform="translate(154.515857, 124.048361)"><g><path d="M 0.765625 -1.53125 C 0.648438 -1.695312 0.59375 -1.863281 0.59375 -2.03125 C 0.59375 -2.28125 0.722656 -2.488281 0.984375 -2.65625 C 1.109375 -2.75 1.253906 -2.796875 1.421875 -2.796875 C 1.640625 -2.796875 1.84375 -2.703125 2.03125 -2.515625 C 2.40625 -2.085938 2.804688 -1.769531 3.234375 -1.5625 C 3.660156 -1.351562 4.171875 -1.25 4.765625 -1.25 C 5.234375 -1.257812 5.644531 -1.363281 6 -1.5625 C 6.363281 -1.769531 6.546875 -2.101562 6.546875 -2.5625 C 6.546875 -2.988281 6.363281 -3.3125 6 -3.53125 C 5.632812 -3.757812 5.097656 -3.96875 4.390625 -4.15625 C 3.691406 -4.332031 3.113281 -4.523438 2.65625 -4.734375 C 2.195312 -4.941406 1.8125 -5.238281 1.5 -5.625 C 1.1875 -6.019531 1.03125 -6.535156 1.03125 -7.171875 C 1.03125 -7.722656 1.1875 -8.207031 1.5 -8.625 C 1.8125 -9.050781 2.226562 -9.378906 2.75 -9.609375 C 3.28125 -9.847656 3.859375 -9.96875 4.484375 -9.96875 C 5.078125 -9.96875 5.664062 -9.851562 6.25 -9.625 C 6.84375 -9.40625 7.328125 -9.066406 7.703125 -8.609375 C 7.847656 -8.441406 7.921875 -8.265625 7.921875 -8.078125 C 7.921875 -7.878906 7.820312 -7.6875 7.625 -7.5 C 7.5 -7.382812 7.347656 -7.328125 7.171875 -7.328125 C 6.941406 -7.328125 6.757812 -7.40625 6.625 -7.5625 C 6.363281 -7.851562 6.039062 -8.078125 5.65625 -8.234375 C 5.28125 -8.398438 4.863281 -8.484375 4.40625 -8.484375 C 3.9375 -8.484375 3.535156 -8.382812 3.203125 -8.1875 C 2.878906 -8 2.71875 -7.675781 2.71875 -7.21875 C 2.726562 -6.78125 2.914062 -6.457031 3.28125 -6.25 C 3.644531 -6.039062 4.207031 -5.835938 4.96875 -5.640625 C 5.625 -5.460938 6.164062 -5.273438 6.59375 -5.078125 C 7.03125 -4.878906 7.398438 -4.582031 7.703125 -4.1875 C 8.003906 -3.800781 8.15625 -3.289062 8.15625 -2.65625 C 8.15625 -2.070312 7.984375 -1.566406 7.640625 -1.140625 C 7.304688 -0.710938 6.867188 -0.382812 6.328125 -0.15625 C 5.796875 0.0703125 5.222656 0.1875 4.609375 0.1875 C 3.828125 0.1875 3.101562 0.0507812 2.4375 -0.21875 C 1.78125 -0.488281 1.222656 -0.925781 0.765625 -1.53125 Z M 0.765625 -1.53125 "/></g></g></g><g fill="#000000" fill-opacity="1"><g transform="translate(175.519133, 124.048361)"><g><path d="M 3.96875 -8.015625 L 3.96875 -2.46875 C 3.96875 -1.851562 4.242188 -1.546875 4.796875 -1.546875 C 4.890625 -1.546875 5.007812 -1.566406 5.15625 -1.609375 C 5.300781 -1.648438 5.421875 -1.671875 5.515625 -1.671875 C 5.671875 -1.671875 5.800781 -1.601562 5.90625 -1.46875 C 6.019531 -1.332031 6.078125 -1.160156 6.078125 -0.953125 C 6.078125 -0.691406 5.925781 -0.46875 5.625 -0.28125 C 5.332031 -0.09375 5.003906 0 4.640625 0 C 4.222656 0 3.84375 -0.0390625 3.5 -0.125 C 3.164062 -0.21875 2.863281 -0.441406 2.59375 -0.796875 C 2.332031 -1.148438 2.203125 -1.6875 2.203125 -2.40625 L 2.203125 -8.015625 L 1.109375 -8.015625 C 0.878906 -8.015625 0.6875 -8.09375 0.53125 -8.25 C 0.375 -8.40625 0.296875 -8.601562 0.296875 -8.84375 C 0.296875 -9.070312 0.375 -9.257812 0.53125 -9.40625 C 0.6875 -9.5625 0.878906 -9.640625 1.109375 -9.640625 L 2.203125 -9.640625 L 2.203125 -11.203125 C 2.203125 -11.453125 2.285156 -11.660156 2.453125 -11.828125 C 2.617188 -12.003906 2.832031 -12.09375 3.09375 -12.09375 C 3.34375 -12.09375 3.550781 -12.003906 3.71875 -11.828125 C 3.882812 -11.660156 3.96875 -11.453125 3.96875 -11.203125 L 3.96875 -9.640625 L 5.515625 -9.640625 C 5.742188 -9.640625 5.9375 -9.5625 6.09375 -9.40625 C 6.25 -9.25 6.328125 -9.054688 6.328125 -8.828125 C 6.328125 -8.585938 6.25 -8.390625 6.09375 -8.234375 C 5.9375 -8.085938 5.742188 -8.015625 5.515625 -8.015625 Z M 3.96875 -8.015625 "/></g></g></g><g fill="#000000" fill-opacity="1"><g transform="translate(194.718519, 124.048361)"><g><path d="M 6.171875 -9.96875 C 6.492188 -9.96875 6.773438 -9.882812 7.015625 -9.71875 C 7.253906 -9.550781 7.375 -9.34375 7.375 -9.09375 C 7.375 -8.800781 7.296875 -8.578125 7.140625 -8.421875 C 6.984375 -8.265625 6.789062 -8.1875 6.5625 -8.1875 C 6.457031 -8.1875 6.289062 -8.222656 6.0625 -8.296875 C 5.800781 -8.390625 5.597656 -8.4375 5.453125 -8.4375 C 5.066406 -8.4375 4.691406 -8.300781 4.328125 -8.03125 C 3.960938 -7.757812 3.664062 -7.390625 3.4375 -6.921875 C 3.207031 -6.460938 3.09375 -5.945312 3.09375 -5.375 L 3.09375 -0.890625 C 3.09375 -0.640625 3.007812 -0.425781 2.84375 -0.25 C 2.675781 -0.0820312 2.460938 0 2.203125 0 C 1.941406 0 1.726562 -0.0820312 1.5625 -0.25 C 1.40625 -0.414062 1.328125 -0.628906 1.328125 -0.890625 L 1.328125 -8.859375 C 1.328125 -9.109375 1.410156 -9.316406 1.578125 -9.484375 C 1.742188 -9.660156 1.953125 -9.75 2.203125 -9.75 C 2.460938 -9.75 2.675781 -9.660156 2.84375 -9.484375 C 3.007812 -9.316406 3.09375 -9.109375 3.09375 -8.859375 L 3.09375 -7.90625 C 3.363281 -8.519531 3.769531 -9.015625 4.3125 -9.390625 C 4.863281 -9.765625 5.484375 -9.957031 6.171875 -9.96875 Z M 6.171875 -9.96875 "/></g></g></g><g fill="#000000" fill-opacity="1"><g transform="translate(214.531598, 124.048361)"><g><path d="M 8.578125 -9.84375 C 8.835938 -9.84375 9.050781 -9.753906 9.21875 -9.578125 C 9.382812 -9.410156 9.46875 -9.203125 9.46875 -8.953125 L 9.46875 -0.90625 C 9.46875 0.644531 9.039062 1.800781 8.1875 2.5625 C 7.332031 3.332031 6.203125 3.71875 4.796875 3.71875 C 4.335938 3.71875 3.882812 3.675781 3.4375 3.59375 C 2.988281 3.507812 2.625 3.390625 2.34375 3.234375 C 1.882812 3.023438 1.65625 2.738281 1.65625 2.375 C 1.65625 2.3125 1.664062 2.234375 1.6875 2.140625 C 1.769531 1.929688 1.878906 1.769531 2.015625 1.65625 C 2.148438 1.539062 2.300781 1.484375 2.46875 1.484375 C 2.570312 1.484375 2.664062 1.503906 2.75 1.546875 C 3.132812 1.722656 3.472656 1.859375 3.765625 1.953125 C 4.066406 2.054688 4.414062 2.109375 4.8125 2.109375 C 6.738281 2.109375 7.703125 1.117188 7.703125 -0.859375 L 7.703125 -1.234375 C 7.367188 -0.785156 6.9375 -0.4375 6.40625 -0.1875 C 5.882812 0.0625 5.28125 0.1875 4.59375 0.1875 C 3.5625 0.1875 2.757812 -0.140625 2.1875 -0.796875 C 1.613281 -1.453125 1.328125 -2.316406 1.328125 -3.390625 L 1.328125 -8.953125 C 1.328125 -9.210938 1.40625 -9.425781 1.5625 -9.59375 C 1.726562 -9.757812 1.941406 -9.84375 2.203125 -9.84375 C 2.460938 -9.84375 2.675781 -9.753906 2.84375 -9.578125 C 3.007812 -9.410156 3.09375 -9.203125 3.09375 -8.953125 L 3.09375 -3.859375 C 3.09375 -3.035156 3.269531 -2.425781 3.625 -2.03125 C 3.988281 -1.644531 4.535156 -1.453125 5.265625 -1.453125 C 5.972656 -1.453125 6.554688 -1.675781 7.015625 -2.125 C 7.472656 -2.570312 7.703125 -3.148438 7.703125 -3.859375 L 7.703125 -8.953125 C 7.703125 -9.210938 7.78125 -9.425781 7.9375 -9.59375 C 8.101562 -9.757812 8.316406 -9.84375 8.578125 -9.84375 Z M 8.578125 -9.84375 "/></g></g></g><g fill="#000000" fill-opacity="1"><g transform="translate(237.431737, 124.048361)"><g/></g></g><g fill="#000000" fill-opacity="1"><g transform="translate(254.715654, 124.048361)"><g><path d="M 9.96875 -5.359375 C 10.207031 -5.359375 10.40625 -5.28125 10.5625 -5.125 C 10.726562 -4.96875 10.8125 -4.773438 10.8125 -4.546875 C 10.8125 -4.304688 10.726562 -4.109375 10.5625 -3.953125 C 10.40625 -3.804688 10.207031 -3.734375 9.96875 -3.734375 L 8.984375 -3.734375 L 8.984375 -0.890625 C 8.984375 -0.640625 8.894531 -0.425781 8.71875 -0.25 C 8.550781 -0.0820312 8.34375 0 8.09375 0 C 7.84375 0 7.632812 -0.0820312 7.46875 -0.25 C 7.300781 -0.425781 7.21875 -0.640625 7.21875 -0.890625 L 7.21875 -3.734375 L 2.125 -3.734375 C 1.894531 -3.734375 1.691406 -3.820312 1.515625 -4 C 1.335938 -4.175781 1.25 -4.378906 1.25 -4.609375 C 1.25 -4.835938 1.316406 -5.035156 1.453125 -5.203125 L 7.390625 -12.671875 C 7.472656 -12.785156 7.578125 -12.875 7.703125 -12.9375 C 7.835938 -13 7.972656 -13.03125 8.109375 -13.03125 C 8.359375 -13.03125 8.566406 -12.941406 8.734375 -12.765625 C 8.898438 -12.585938 8.984375 -12.378906 8.984375 -12.140625 L 8.984375 -5.359375 Z M 3.59375 -5.359375 L 7.21875 -5.359375 L 7.21875 -10.015625 Z M 3.59375 -5.359375 "/></g></g></g><g fill="#000000" fill-opacity="1"><g transform="translate(278.843188, 124.048361)"><g><path d="M 1.953125 -0.015625 C 1.648438 -0.015625 1.421875 -0.09375 1.265625 -0.25 C 1.117188 -0.414062 1.046875 -0.65625 1.046875 -0.96875 L 1.046875 -1.328125 C 1.046875 -1.617188 1.117188 -1.84375 1.265625 -2 C 1.421875 -2.164062 1.648438 -2.25 1.953125 -2.25 L 2.140625 -2.25 C 2.453125 -2.25 2.6875 -2.164062 2.84375 -2 C 3 -1.84375 3.078125 -1.617188 3.078125 -1.328125 L 3.078125 -0.96875 C 3.078125 -0.332031 2.765625 -0.015625 2.140625 -0.015625 Z M 1.953125 -0.015625 "/></g></g></g><g fill="#000000" fill-opacity="1"><g transform="translate(295.08569, 124.048361)"><g><path d="M 5.640625 0.1875 C 4.617188 0.1875 3.75 -0.0976562 3.03125 -0.671875 C 2.3125 -1.242188 1.769531 -2.03125 1.40625 -3.03125 C 1.039062 -4.039062 0.859375 -5.203125 0.859375 -6.515625 C 0.859375 -7.828125 1.039062 -8.984375 1.40625 -9.984375 C 1.769531 -10.992188 2.3125 -11.785156 3.03125 -12.359375 C 3.75 -12.929688 4.617188 -13.21875 5.640625 -13.21875 C 6.660156 -13.21875 7.53125 -12.929688 8.25 -12.359375 C 8.96875 -11.785156 9.507812 -10.992188 9.875 -9.984375 C 10.238281 -8.984375 10.421875 -7.828125 10.421875 -6.515625 C 10.421875 -5.203125 10.238281 -4.039062 9.875 -3.03125 C 9.507812 -2.03125 8.96875 -1.242188 8.25 -0.671875 C 7.53125 -0.0976562 6.660156 0.1875 5.640625 0.1875 Z M 5.640625 -1.59375 C 6.546875 -1.59375 7.25 -2.019531 7.75 -2.875 C 8.25 -3.738281 8.5 -4.953125 8.5 -6.515625 C 8.5 -8.078125 8.25 -9.285156 7.75 -10.140625 C 7.25 -10.992188 6.546875 -11.421875 5.640625 -11.421875 C 4.734375 -11.421875 4.023438 -10.992188 3.515625 -10.140625 C 3.015625 -9.285156 2.765625 -8.078125 2.765625 -6.515625 C 2.765625 -4.953125 3.015625 -3.738281 3.515625 -2.875 C 4.023438 -2.019531 4.734375 -1.59375 5.640625 -1.59375 Z M 5.640625 -1.59375 "/></g></g></g></svg>