<svg xmlns="http://www.w3.org/2000/svg" version="1.1" xmlns:xlink="http://www.w3.org/1999/xlink" xmlns:svgjs="http://svgjs.com/svgjs" width="1000" height="1000"><rect width="1000" height="1000" rx="500" ry="500" fill="#ffffff"></rect><g transform="matrix(2,0,0,2,-0.32843017578125,0.0052032470703125)"><svg xmlns="http://www.w3.org/2000/svg" version="1.1" xmlns:xlink="http://www.w3.org/1999/xlink" xmlns:svgjs="http://svgjs.com/svgjs" width="500" height="500"><svg xmlns="http://www.w3.org/2000/svg" xmlns:xlink="http://www.w3.org/1999/xlink" width="500" zoomAndPan="magnify" viewBox="0 0 375 374.999991" height="500" preserveAspectRatio="xMidYMid meet" version="1.0"><defs><g></g><clipPath id="4d7de15321"><path d="M 98.402344 94.527344 L 260 94.527344 L 260 162.027344 L 98.402344 162.027344 Z M 98.402344 94.527344 " clip-rule="nonzero"></path></clipPath><clipPath id="b38cf4e0fc"><path d="M 146 111 L 275.402344 111 L 275.402344 162.027344 L 146 162.027344 Z M 146 111 " clip-rule="nonzero"></path></clipPath><clipPath id="a129274808"><path d="M 99.410156 213.128906 L 261 213.128906 L 261 280.464844 L 99.410156 280.464844 Z M 99.410156 213.128906 " clip-rule="nonzero"></path></clipPath><clipPath id="2a4fc9c57f"><path d="M 147 213.128906 L 276.410156 213.128906 L 276.410156 264 L 147 264 Z M 147 213.128906 " clip-rule="nonzero"></path></clipPath></defs><g clip-path="url(#4d7de15321)"><path fill="#4a95cf" d="M 200.085938 265.753906 C 155.242188 265.753906 118.894531 229.386719 118.894531 184.527344 C 118.894531 139.667969 155.242188 103.300781 200.085938 103.300781 C 223.304688 103.300781 244.242188 113.054688 259.042969 128.683594 C 242.5625 107.875 217.082031 94.523438 188.484375 94.523438 C 138.796875 94.523438 98.519531 134.820312 98.519531 184.527344 C 98.519531 234.234375 138.796875 274.53125 188.484375 274.53125 C 217.082031 274.53125 242.5625 261.179688 259.042969 240.371094 C 244.242188 256 223.304688 265.753906 200.085938 265.753906 " fill-opacity="1" fill-rule="nonzero"></path></g><g clip-path="url(#b38cf4e0fc)"><path fill="#393536" d="M 202.453125 111.640625 C 180.238281 111.640625 160.347656 121.589844 146.988281 137.273438 C 160.011719 125.082031 177.511719 117.613281 196.753906 117.613281 C 236.992188 117.613281 269.613281 150.246094 269.613281 190.5 C 269.613281 208.527344 263.066406 225.023438 252.226562 237.746094 C 266.433594 224.449219 275.308594 205.527344 275.308594 184.527344 C 275.308594 144.273438 242.691406 111.640625 202.453125 111.640625 " fill-opacity="1" fill-rule="nonzero"></path></g><g clip-path="url(#a129274808)"><path fill="#4a95cf" d="M 201.09375 109.238281 C 156.25 109.238281 119.902344 145.605469 119.902344 190.464844 C 119.902344 235.324219 156.25 271.691406 201.09375 271.691406 C 224.3125 271.691406 245.25 261.9375 260.050781 246.308594 C 243.570312 267.117188 218.089844 280.46875 189.492188 280.46875 C 139.804688 280.46875 99.527344 240.171875 99.527344 190.464844 C 99.527344 140.757812 139.804688 100.460938 189.492188 100.460938 C 218.089844 100.460938 243.570312 113.8125 260.050781 134.621094 C 245.25 118.992188 224.3125 109.238281 201.09375 109.238281 " fill-opacity="1" fill-rule="nonzero"></path></g><g clip-path="url(#2a4fc9c57f)"><path fill="#393536" d="M 203.460938 263.351562 C 181.246094 263.351562 161.355469 253.40625 147.996094 237.71875 C 161.019531 249.914062 178.519531 257.378906 197.761719 257.378906 C 238 257.378906 270.621094 224.746094 270.621094 184.492188 C 270.621094 166.464844 264.074219 149.96875 253.234375 137.246094 C 267.441406 150.546875 276.316406 169.46875 276.316406 190.464844 C 276.316406 230.71875 243.699219 263.351562 203.460938 263.351562 " fill-opacity="1" fill-rule="nonzero"></path></g><g fill="#000000" fill-opacity="1"><g transform="translate(65.981629, 201.78707)"><g><path d="M 19.390625 0.546875 C 16.054688 0.546875 13.046875 -0.171875 10.359375 -1.609375 C 7.679688 -3.046875 5.582031 -5.023438 4.0625 -7.546875 C 2.550781 -10.078125 1.796875 -12.921875 1.796875 -16.078125 C 1.796875 -19.234375 2.550781 -22.078125 4.0625 -24.609375 C 5.582031 -27.140625 7.679688 -29.125 10.359375 -30.5625 C 13.046875 -32 16.054688 -32.71875 19.390625 -32.71875 C 22.734375 -32.71875 25.734375 -32 28.390625 -30.5625 C 31.054688 -29.125 33.15625 -27.140625 34.6875 -24.609375 C 36.226562 -22.078125 37 -19.234375 37 -16.078125 C 37 -12.921875 36.226562 -10.078125 34.6875 -7.546875 C 33.15625 -5.023438 31.054688 -3.046875 28.390625 -1.609375 C 25.734375 -0.171875 22.734375 0.546875 19.390625 0.546875 Z M 19.390625 -5.796875 C 21.285156 -5.796875 23 -6.226562 24.53125 -7.09375 C 26.070312 -7.96875 27.273438 -9.1875 28.140625 -10.75 C 29.015625 -12.3125 29.453125 -14.085938 29.453125 -16.078125 C 29.453125 -18.078125 29.015625 -19.851562 28.140625 -21.40625 C 27.273438 -22.96875 26.070312 -24.1875 24.53125 -25.0625 C 23 -25.9375 21.285156 -26.375 19.390625 -26.375 C 17.492188 -26.375 15.78125 -25.9375 14.25 -25.0625 C 12.71875 -24.1875 11.515625 -22.96875 10.640625 -21.40625 C 9.765625 -19.851562 9.328125 -18.078125 9.328125 -16.078125 C 9.328125 -14.085938 9.765625 -12.3125 10.640625 -10.75 C 11.515625 -9.1875 12.71875 -7.96875 14.25 -7.09375 C 15.78125 -6.226562 17.492188 -5.796875 19.390625 -5.796875 Z M 19.390625 -5.796875 "></path></g></g></g><g fill="#000000" fill-opacity="1"><g transform="translate(105.450397, 201.78707)"><g><path d="M 33.09375 0 L 33.046875 -19.296875 L 23.578125 -3.40625 L 20.21875 -3.40625 L 10.796875 -18.890625 L 10.796875 0 L 3.8125 0 L 3.8125 -32.171875 L 9.96875 -32.171875 L 22.015625 -12.171875 L 33.875 -32.171875 L 39.984375 -32.171875 L 40.078125 0 Z M 33.09375 0 "></path></g></g></g><g fill="#000000" fill-opacity="1"><g transform="translate(150.019289, 201.78707)"><g><path d="M 33.3125 -32.171875 L 33.3125 0 L 27.203125 0 L 11.171875 -19.53125 L 11.171875 0 L 3.8125 0 L 3.8125 -32.171875 L 9.96875 -32.171875 L 25.96875 -12.640625 L 25.96875 -32.171875 Z M 33.3125 -32.171875 "></path></g></g></g><g fill="#000000" fill-opacity="1"><g transform="translate(187.833966, 201.78707)"><g><path d="M 3.8125 -32.171875 L 11.265625 -32.171875 L 11.265625 0 L 3.8125 0 Z M 3.8125 -32.171875 "></path></g></g></g><g fill="#000000" fill-opacity="1"><g transform="translate(203.594056, 201.78707)"><g><path d="M 33.09375 0 L 33.046875 -19.296875 L 23.578125 -3.40625 L 20.21875 -3.40625 L 10.796875 -18.890625 L 10.796875 0 L 3.8125 0 L 3.8125 -32.171875 L 9.96875 -32.171875 L 22.015625 -12.171875 L 33.875 -32.171875 L 39.984375 -32.171875 L 40.078125 0 Z M 33.09375 0 "></path></g></g></g><g fill="#000000" fill-opacity="1"><g transform="translate(248.162956, 201.78707)"><g><path d="M 28.71875 -5.96875 L 28.71875 0 L 3.8125 0 L 3.8125 -32.171875 L 28.125 -32.171875 L 28.125 -26.1875 L 11.21875 -26.1875 L 11.21875 -19.203125 L 26.140625 -19.203125 L 26.140625 -13.421875 L 11.21875 -13.421875 L 11.21875 -5.96875 Z M 28.71875 -5.96875 "></path></g></g></g><g fill="#000000" fill-opacity="1"><g transform="translate(279.682877, 201.78707)"><g><path d="M 14.390625 0.546875 C 11.835938 0.546875 9.375 0.203125 7 -0.484375 C 4.632812 -1.171875 2.726562 -2.066406 1.28125 -3.171875 L 3.8125 -8.78125 C 5.1875 -7.769531 6.820312 -6.957031 8.71875 -6.34375 C 10.625 -5.726562 12.523438 -5.421875 14.421875 -5.421875 C 16.535156 -5.421875 18.097656 -5.734375 19.109375 -6.359375 C 20.128906 -6.992188 20.640625 -7.832031 20.640625 -8.875 C 20.640625 -9.632812 20.335938 -10.265625 19.734375 -10.765625 C 19.140625 -11.273438 18.375 -11.679688 17.4375 -11.984375 C 16.5 -12.296875 15.234375 -12.632812 13.640625 -13 C 11.191406 -13.582031 9.1875 -14.164062 7.625 -14.75 C 6.0625 -15.332031 4.722656 -16.265625 3.609375 -17.546875 C 2.492188 -18.835938 1.9375 -20.554688 1.9375 -22.703125 C 1.9375 -24.566406 2.441406 -26.253906 3.453125 -27.765625 C 4.460938 -29.285156 5.984375 -30.488281 8.015625 -31.375 C 10.054688 -32.269531 12.546875 -32.71875 15.484375 -32.71875 C 17.535156 -32.71875 19.539062 -32.472656 21.5 -31.984375 C 23.46875 -31.492188 25.1875 -30.789062 26.65625 -29.875 L 24.359375 -24.21875 C 21.378906 -25.90625 18.40625 -26.75 15.4375 -26.75 C 13.351562 -26.75 11.8125 -26.410156 10.8125 -25.734375 C 9.820312 -25.054688 9.328125 -24.164062 9.328125 -23.0625 C 9.328125 -21.96875 9.898438 -21.148438 11.046875 -20.609375 C 12.203125 -20.078125 13.957031 -19.550781 16.3125 -19.03125 C 18.757812 -18.445312 20.765625 -17.863281 22.328125 -17.28125 C 23.890625 -16.695312 25.226562 -15.773438 26.34375 -14.515625 C 27.46875 -13.265625 28.03125 -11.566406 28.03125 -9.421875 C 28.03125 -7.578125 27.515625 -5.894531 26.484375 -4.375 C 25.460938 -2.863281 23.925781 -1.664062 21.875 -0.78125 C 19.820312 0.101562 17.328125 0.546875 14.390625 0.546875 Z M 14.390625 0.546875 "></path></g></g></g><g fill="#000000" fill-opacity="1"><g transform="translate(143.607504, 222.024185)"><g><path d="M 2.832031 0.257812 C 4.113281 0.257812 5.054688 -0.703125 5.535156 -1.984375 C 5.886719 -2.960938 6.175781 -4.589844 6.222656 -4.863281 C 6.269531 -5.070312 6.335938 -5.488281 6.429688 -6.046875 L 7.039062 -9.46875 C 7.277344 -10.78125 7.613281 -11.46875 6.976562 -11.46875 C 6.429688 -11.46875 5.839844 -11.886719 5.421875 -11.484375 C 3.597656 -10.078125 1.230469 -10.972656 0.863281 -8.894531 C 0.71875 -8.109375 1.039062 -7.453125 1.777344 -7.261719 C 1.839844 -7.246094 1.902344 -7.230469 1.96875 -7.230469 C 2.160156 -7.230469 2.367188 -7.34375 2.414062 -7.597656 C 2.449219 -7.855469 2.175781 -8.03125 2.03125 -8.175781 C 1.855469 -8.351562 1.777344 -8.6875 1.824219 -9.007812 C 2.015625 -10.09375 3.777344 -9.46875 5.261719 -10.511719 C 5.023438 -9.292969 4.734375 -7.613281 4.429688 -5.96875 L 3.808594 -2.832031 C 3.519531 -1.488281 3.375 -0.496094 2.464844 -0.496094 C 2.273438 -0.496094 2.191406 -0.335938 2.160156 -0.175781 C 2.144531 -0.078125 2.144531 0.015625 2.175781 0.0625 C 2.253906 0.175781 2.464844 0.257812 2.832031 0.257812 Z M 2.832031 0.257812 "></path></g></g></g><g fill="#000000" fill-opacity="1"><g transform="translate(151.861521, 222.024185)"><g><path d="M 0 0.03125 C 0.65625 0.03125 1.105469 -1.375 1.566406 -2.335938 C 2.574219 -4.527344 3.933594 -7.070312 4.464844 -7.070312 C 4.992188 -7.070312 4.976562 -6.285156 4.816406 -5.359375 C 4.765625 -5.070312 4.6875 -4.75 4.625 -4.449219 C 4.464844 -3.792969 4.238281 -2.75 4.078125 -1.984375 C 3.886719 -1.085938 4.128906 0 5.710938 0 C 6.847656 0 8.015625 -1.648438 9.054688 -3.519531 C 9.292969 -3.953125 9.519531 -4.382812 9.726562 -4.816406 C 9.917969 -5.214844 10.015625 -5.472656 9.710938 -5.613281 C 9.40625 -5.757812 9.246094 -5.488281 9.117188 -5.199219 C 8.910156 -4.71875 8.65625 -4.320312 8.445312 -3.917969 C 7.421875 -1.953125 6.558594 -0.816406 5.933594 -0.816406 C 5.421875 -0.816406 6.222656 -3.199219 6.71875 -5.277344 C 6.847656 -5.808594 6.863281 -6.269531 6.832031 -6.605469 C 6.734375 -7.472656 6.160156 -8 5.121094 -8 C 3.648438 -8 2.6875 -6.398438 1.34375 -3.375 C 1.488281 -4.09375 1.886719 -5.421875 2.046875 -6.367188 C 2.128906 -6.863281 2.160156 -7.261719 2.078125 -7.421875 C 1.886719 -7.824219 1.582031 -7.984375 1.152344 -8 C 0.71875 -8 0.449219 -7.902344 0.335938 -7.34375 C -0.015625 -5.566406 -0.433594 -3.792969 -0.832031 -1.953125 C -1.023438 -1.054688 -0.671875 0.03125 0 0.03125 Z M 0 0.03125 "></path></g></g></g><g fill="#000000" fill-opacity="1"><g transform="translate(161.187276, 222.024185)"><g><path d="M 9.550781 -5.613281 C 9.246094 -5.757812 9.085938 -5.488281 8.957031 -5.199219 C 8.75 -4.71875 8.496094 -4.320312 8.285156 -3.917969 C 7.261719 -1.953125 6.398438 -0.816406 5.773438 -0.816406 C 5.261719 -0.816406 6.191406 -3.742188 6.6875 -5.824219 C 6.941406 -6.910156 7.230469 -8.144531 7.503906 -9.46875 C 7.664062 -10.125 7.902344 -11.054688 7.742188 -11.40625 C 7.535156 -11.839844 7.199219 -12 6.734375 -12 C 6.351562 -12 6.109375 -11.886719 6 -11.359375 C 5.824219 -10.527344 5.472656 -8.878906 5.085938 -7.152344 C 4.71875 -7.648438 4.128906 -8 3.34375 -8 C 1.214844 -8 -0.335938 -5.695312 -0.71875 -3.566406 C -1.039062 -1.726562 -0.480469 0 1.375 0 C 2.480469 -0.03125 3.246094 -0.832031 3.917969 -1.984375 C 3.710938 -1.085938 3.96875 0 5.550781 0 C 6.6875 0 7.855469 -1.648438 8.894531 -3.519531 C 9.132812 -3.953125 9.359375 -4.382812 9.566406 -4.816406 C 9.757812 -5.214844 9.855469 -5.472656 9.550781 -5.613281 Z M 1.757812 -0.6875 C 1.070312 -0.6875 1.183594 -2 1.34375 -2.945312 C 1.679688 -4.816406 2.625 -7.152344 3.472656 -7.152344 C 3.96875 -7.152344 4.574219 -6.78125 4.847656 -6.0625 L 4.847656 -6.046875 C 4.71875 -5.40625 4.574219 -4.765625 4.449219 -4.191406 C 3.664062 -2.574219 2.65625 -0.6875 1.757812 -0.6875 Z M 1.757812 -0.6875 "></path></g></g></g><g fill="#000000" fill-opacity="1"><g transform="translate(170.353077, 222.024185)"><g><path d="M 0.511719 0 C 1.9375 0 3.007812 -1.808594 4 -4.09375 C 3.695312 -2.910156 3.617188 -2.429688 3.535156 -1.984375 C 3.375 -1.085938 3.582031 0 5.167969 0 C 6.304688 0 7.472656 -1.648438 8.511719 -3.519531 C 8.75 -3.953125 8.972656 -4.382812 9.183594 -4.816406 C 9.375 -5.214844 9.46875 -5.472656 9.167969 -5.613281 C 8.863281 -5.757812 8.703125 -5.488281 8.574219 -5.199219 C 8.367188 -4.71875 8.109375 -4.320312 7.902344 -3.917969 C 6.878906 -1.953125 6.015625 -0.816406 5.390625 -0.816406 C 4.878906 -0.816406 5.664062 -3.246094 6.175781 -5.328125 C 6.253906 -5.679688 6.320312 -6.03125 6.382812 -6.335938 C 6.464844 -6.847656 6.496094 -7.246094 6.414062 -7.40625 C 6.238281 -7.824219 5.917969 -8 5.4375 -8 C 5.070312 -8 4.910156 -7.871094 4.6875 -7.359375 C 4.078125 -5.886719 1.726562 -1.121094 1.121094 -1.136719 C 0.929688 -1.136719 0.847656 -1.375 0.910156 -1.648438 C 1.167969 -2.847656 1.777344 -4.960938 2.015625 -6.285156 C 2.113281 -6.816406 2.128906 -7.214844 2.0625 -7.375 C 1.886719 -7.789062 1.566406 -8 1.105469 -8 C 0.703125 -8 0.433594 -7.855469 0.335938 -7.328125 C -0.03125 -5.550781 -0.449219 -3.824219 -0.894531 -1.984375 C -1.136719 -1.007812 -0.640625 0 0.511719 0 Z M 0.511719 0 "></path></g></g></g><g fill="#000000" fill-opacity="1"><g transform="translate(179.134964, 222.024185)"><g><path d="M 6.496094 -5.613281 C 6.191406 -5.757812 6.03125 -5.488281 5.902344 -5.199219 C 5.792969 -4.941406 5.679688 -4.6875 5.566406 -4.464844 C 5.054688 -3.457031 4.449219 -2.878906 3.550781 -2.625 C 3.597656 -3.375 3.519531 -4.289062 3.359375 -5.328125 C 3.101562 -6.910156 3.664062 -7.117188 3.550781 -7.40625 C 3.390625 -7.808594 2.976562 -8 2.609375 -8 C 1.601562 -8 0.929688 -7.40625 0.382812 -6.382812 C 0.191406 -6.015625 0.03125 -5.695312 -0.128906 -5.359375 C -0.320312 -4.960938 -0.414062 -4.703125 -0.113281 -4.558594 C 0.191406 -4.414062 0.351562 -4.6875 0.480469 -4.976562 C 0.640625 -5.34375 0.816406 -5.664062 0.960938 -5.96875 C 1.085938 -6.222656 1.214844 -6.445312 1.34375 -6.621094 C 1.230469 -6.128906 1.265625 -5.488281 1.390625 -4.734375 C 1.535156 -3.886719 1.695312 -3.101562 1.742188 -2.464844 C 1.28125 -2.480469 0.769531 -2.542969 0.207031 -2.625 C 0.015625 -2.65625 -0.257812 -2.496094 -0.289062 -2.222656 C -0.382812 -1.359375 -0.257812 0.015625 1.105469 0.015625 C 2.480469 0.015625 3.183594 -0.640625 3.457031 -1.808594 C 4.671875 -2.113281 5.550781 -2.878906 6.175781 -4.144531 L 6.511719 -4.816406 C 6.703125 -5.214844 6.800781 -5.472656 6.496094 -5.613281 Z M 1.121094 -0.945312 C 0.398438 -0.945312 0.335938 -1.390625 0.367188 -1.839844 C 0.863281 -1.742188 1.3125 -1.679688 1.742188 -1.664062 C 1.695312 -1.214844 1.519531 -0.945312 1.121094 -0.945312 Z M 1.121094 -0.945312 "></path></g></g></g><g fill="#000000" fill-opacity="1"><g transform="translate(185.245491, 222.024185)"><g><path d="M 0.910156 0 C 2.046875 0 3.214844 -1.648438 4.253906 -3.519531 C 4.496094 -3.953125 4.71875 -4.382812 4.925781 -4.816406 C 5.121094 -5.214844 5.214844 -5.472656 4.910156 -5.613281 C 4.605469 -5.757812 4.449219 -5.488281 4.320312 -5.199219 C 4.113281 -4.71875 3.855469 -4.320312 3.648438 -3.917969 C 2.625 -1.953125 1.757812 -0.816406 1.136719 -0.816406 C 0.910156 -0.816406 0.945312 -1.296875 1.105469 -2.015625 C 1.519531 -4.078125 2.609375 -9.582031 2.640625 -9.664062 L 3.742188 -9.664062 C 3.917969 -9.664062 4.046875 -9.839844 4.078125 -10.03125 C 4.113281 -10.207031 4.046875 -10.382812 3.855469 -10.382812 L 2.800781 -10.382812 C 2.878906 -10.78125 2.910156 -11.167969 2.816406 -11.375 C 2.625 -11.789062 2.304688 -12 1.839844 -12 C 1.441406 -12 1.199219 -11.855469 1.085938 -11.328125 C 1.023438 -11.039062 0.960938 -10.71875 0.878906 -10.382812 L -0.03125 -10.382812 C -0.222656 -10.382812 -0.382812 -10.191406 -0.414062 -10.015625 C -0.449219 -9.839844 -0.367188 -9.664062 -0.113281 -9.664062 L 0.71875 -9.664062 C 0.351562 -7.902344 -0.433594 -3.34375 -0.71875 -1.984375 C -0.929688 -1.085938 -0.671875 0 0.910156 0 Z M 0.910156 0 "></path></g></g></g><g fill="#000000" fill-opacity="1"><g transform="translate(189.772407, 222.024185)"><g><path d="M 2.960938 0 C 4.191406 0 5.503906 -1.953125 6.589844 -4.046875 L 6.976562 -4.816406 C 7.167969 -5.214844 7.261719 -5.472656 6.957031 -5.613281 C 6.65625 -5.757812 6.496094 -5.488281 6.367188 -5.199219 C 6.207031 -4.878906 6.046875 -4.589844 5.902344 -4.304688 C 4.734375 -2.113281 3.855469 -0.816406 3.183594 -0.816406 C 2.671875 -0.816406 3.566406 -3.648438 4.0625 -5.726562 L 4.207031 -6.335938 C 4.351562 -7.183594 4.304688 -7.964844 3.421875 -8 C 3.070312 -8 2.71875 -7.597656 2.367188 -7.34375 C 2.015625 -7.117188 1.632812 -6.863281 1.328125 -6.941406 C 1.664062 -8.175781 1.566406 -9.085938 0.574219 -9.085938 C -0.113281 -9.085938 -0.527344 -8.605469 -0.640625 -8.015625 C -0.75 -7.34375 -0.480469 -6.558594 0.238281 -6.160156 C 0.160156 -5.96875 -0.160156 -5.3125 -0.222656 -5.167969 C -0.414062 -4.765625 -0.511719 -4.511719 -0.207031 -4.367188 C 0.0976562 -4.222656 0.257812 -4.496094 0.382812 -4.785156 L 1.023438 -6.046875 C 1.40625 -6.046875 2.03125 -6.253906 2.0625 -6.253906 C 2.273438 -6.253906 2.304688 -5.96875 2.191406 -5.550781 C 1.902344 -4.367188 1.617188 -3.3125 1.328125 -1.984375 C 1.121094 -1.085938 1.375 0 2.960938 0 Z M 0.527344 -7.039062 C 0.304688 -7.261719 0.144531 -7.613281 0.191406 -7.917969 C 0.207031 -8 0.273438 -8.222656 0.449219 -8.222656 C 0.75 -8.222656 0.6875 -7.597656 0.527344 -7.039062 Z M 0.527344 -7.039062 "></path></g></g></g><g fill="#000000" fill-opacity="1"><g transform="translate(196.346831, 222.024185)"><g><path d="M 2.238281 4.640625 C 3.550781 4.640625 4.398438 2.320312 4.785156 0.414062 C 6.222656 0.046875 7.855469 -2.625 9.023438 -5.039062 C 9.230469 -5.457031 9.117188 -5.632812 8.734375 -5.632812 C 8.558594 -5.632812 8.445312 -5.503906 8.300781 -5.199219 C 6.957031 -2.464844 5.792969 -0.863281 4.976562 -0.496094 C 5.136719 -1.296875 6.605469 -6.941406 6.414062 -7.40625 C 6.238281 -7.808594 5.839844 -8 5.472656 -8 C 5.121094 -8 4.800781 -7.839844 4.6875 -7.359375 C 4.078125 -5.886719 1.726562 -1.136719 1.121094 -1.136719 C 0.929688 -1.136719 0.847656 -1.375 0.910156 -1.648438 C 1.183594 -2.816406 1.777344 -4.894531 2 -6.222656 C 2.09375 -6.765625 2.128906 -7.199219 2.0625 -7.375 C 1.886719 -7.789062 1.566406 -8 1.105469 -8 C 0.703125 -8 0.433594 -7.855469 0.335938 -7.328125 C -0.03125 -5.550781 -0.449219 -3.824219 -0.894531 -1.984375 C -1.136719 -1.007812 -0.640625 0 0.511719 0 C 1.9375 0 3.007812 -1.808594 4 -4.09375 C 3.886719 -3.503906 3.34375 -0.671875 3.28125 -0.191406 C 2.304688 0.257812 1.390625 1.488281 1.199219 2.609375 C 1.039062 3.535156 1.246094 4.640625 2.238281 4.640625 Z M 2.351562 3.742188 C 2.015625 3.742188 2.015625 2.878906 2.175781 2.273438 C 2.273438 1.902344 2.734375 1.121094 3.214844 0.847656 C 3.039062 1.871094 2.863281 3.742188 2.351562 3.742188 Z M 2.351562 3.742188 "></path></g></g></g><g fill="#000000" fill-opacity="1"><g transform="translate(204.856783, 222.024185)"><g></g></g></g><g fill="#000000" fill-opacity="1"><g transform="translate(210.43944, 222.024185)"><g><path d="M 4.910156 0.03125 C 5.296875 0.03125 5.550781 -0.238281 5.710938 -0.800781 C 6.191406 -2.734375 6.671875 -4.71875 7.117188 -6.75 C 7.292969 -7.566406 6.765625 -8.03125 5.96875 -8.03125 C 5.679688 -8.03125 5.472656 -7.871094 5.390625 -7.550781 L 4.800781 -4.894531 C 3.917969 -4.878906 3.054688 -4.847656 2.191406 -4.832031 C 2.238281 -5.039062 2.320312 -5.296875 2.398438 -5.519531 C 2.65625 -6.398438 6.320312 -9.375 6.464844 -9.519531 C 6.941406 -10.03125 7.039062 -10.832031 6.511719 -11.292969 C 6.285156 -11.503906 6.015625 -11.484375 5.648438 -11.132812 C 4.207031 -9.824219 1.070312 -7.421875 0.527344 -5.550781 C 0.496094 -5.457031 0.480469 -5.375 0.464844 -5.296875 C 0.320312 -4.480469 0.769531 -4.0625 1.632812 -4.0625 C 3.054688 -4.0625 3.695312 -4.144531 4.625 -4.128906 C 4.414062 -3.199219 4.207031 -2.175781 4.03125 -1.34375 C 3.808594 -0.335938 4.222656 0.03125 4.910156 0.03125 Z M 4.910156 0.03125 "></path></g></g></g><g fill="#000000" fill-opacity="1"><g transform="translate(218.421521, 222.024185)"><g><path d="M 0.527344 0.273438 C 1.085938 0.273438 1.632812 -0.128906 1.742188 -0.785156 C 1.886719 -1.359375 1.550781 -1.839844 0.894531 -1.839844 C 0.289062 -1.839844 -0.222656 -1.359375 -0.335938 -0.71875 C -0.433594 -0.175781 -0.03125 0.273438 0.527344 0.273438 Z M 0.527344 0.273438 "></path></g></g></g><g fill="#000000" fill-opacity="1"><g transform="translate(222.084638, 222.024185)"><g><path d="M 3.28125 0.128906 C 4.398438 0.128906 5.214844 -0.273438 5.917969 -0.894531 C 7.246094 -2.09375 7.984375 -4.144531 8.300781 -5.96875 C 8.796875 -8.832031 8.382812 -11.230469 5.679688 -11.230469 C 2.671875 -11.230469 1.039062 -8.429688 0.464844 -5.230469 C -0.046875 -2.289062 0.558594 0.128906 3.28125 0.128906 Z M 3.953125 -0.800781 C 2.289062 -0.800781 2.351562 -3.070312 2.734375 -5.246094 C 3.167969 -7.710938 4.144531 -10.253906 5.855469 -10.335938 C 7.710938 -10.335938 7.789062 -8.03125 7.4375 -5.96875 C 7.054688 -3.855469 5.808594 -0.800781 3.953125 -0.800781 Z M 3.953125 -0.800781 "></path></g></g></g></svg></svg></g></svg>